<svg xmlns="http://www.w3.org/2000/svg" viewBox="0 0 94.25 94.25"><defs><style>.cls-1{fill:#444039;}</style></defs><g id="Layer_2" data-name="Layer 2"><g id="Layer_1-2" data-name="Layer 1"><path class="cls-1" d="M47.13,0A47.13,47.13,0,1,0,94.25,47.12,47.12,47.12,0,0,0,47.13,0Zm29.2,28.46,1.6,2.77L67.8,37.07l-1.6-2.76ZM66.57,47.12A19.45,19.45,0,1,1,47.13,27.68,19.45,19.45,0,0,1,66.57,47.12ZM63.08,16.36,65.85,18,60,28.09l-2.77-1.6ZM45.56,12.5h3.2V24.2h-3.2ZM31.23,16.32l5.85,10.13-2.77,1.6L28.46,17.92ZM18,28.4l10.13,5.85L26.49,37,16.36,31.17ZM12.51,48.69v-3.2H24.2v3.2Zm5.42,17.1L16.33,63l10.13-5.85,1.59,2.77Zm13.24,12.1-2.77-1.6,5.85-10.13L37,67.76Zm17.52,3.85h-3.2V70.05h3.2ZM63,77.92,57.17,67.79l2.77-1.6,5.85,10.13ZM76.29,65.85,66.16,60l1.6-2.77,10.13,5.85ZM70.05,48.76v-3.2h11.7v3.2Z"/></g></g></svg>