<svg xmlns="http://www.w3.org/2000/svg" viewBox="0 0 94.26 94.26"><defs><style>.cls-1{fill:#444039;}</style></defs><g id="Layer_2" data-name="Layer 2"><g id="Layer_1-2" data-name="Layer 1"><path class="cls-1" d="M47.13,0A47.13,47.13,0,1,0,94.26,47.13,47.13,47.13,0,0,0,47.13,0ZM40,21.16l1.65.95-3,5.14-1.65-.95Zm-1.18,9.29a16.5,16.5,0,0,0-5.52,8.4,16,16,0,0,0-4.13-.55,15.56,15.56,0,0,0-6.07,1.23,9.34,9.34,0,0,1,9-12A9.28,9.28,0,0,1,38.86,30.45ZM31.13,19.28H33v5.93H31.13Zm-7,1.87,3,5.13-1.65,1-3-5.14Zm-6.79,6.07,5.14,3-.95,1.65-5.14-3ZM14.5,35.87h5.94v1.91H14.5Zm22,35.85a2.46,2.46,0,0,1-2.46-2.46c0-1.36,2.06-6.88,2.46-6.88S39,67.9,39,69.26A2.46,2.46,0,0,1,36.52,71.72Zm10.8,0a2.46,2.46,0,0,1-2.46-2.46c0-1.36,2.06-6.88,2.46-6.88s2.46,5.52,2.46,6.88A2.46,2.46,0,0,1,47.32,71.72Zm10.81,0a2.47,2.47,0,0,1-2.47-2.46c0-1.36,2.06-6.88,2.47-6.88s2.46,5.52,2.46,6.88A2.46,2.46,0,0,1,58.13,71.72Zm9.61-4.67h-5.1c-.23-.88-.55-1.8-.83-2.58-1-2.81-1.76-4.53-3.68-4.53s-2.66,1.72-3.69,4.53c-.28.78-.59,1.7-.83,2.58H51.84c-.24-.88-.55-1.8-.84-2.58-1-2.81-1.75-4.53-3.68-4.53s-2.65,1.72-3.68,4.53c-.28.78-.6,1.7-.84,2.58H41c-.24-.88-.55-1.8-.84-2.58-1-2.81-1.75-4.53-3.68-4.53s-2.66,1.72-3.68,4.53c-.29.78-.6,1.7-.84,2.58H29.21a13.15,13.15,0,0,1,0-26.3,13,13,0,0,1,6,1.46,14,14,0,1,1,27.61,4.33,10.84,10.84,0,1,1,4.9,20.51Z"/></g></g></svg>